# xmcd
#
# Track frame offsets:
# 161
# 19257
# 38462
# 58836
# 69526
# 88567
# 107722
# 123169
# 139607
# 157860
# 176530
# 193679
# 208119
#
# Disc length: 2987 seconds
#
#
# Revision: 0
# Processed by: cddbd v1.5.1PL2 Copyright (c) Steve Scherf et al.
# Submitted via: FreeRIP 2.945 
#
DISCID=aa0ba90d
DTITLE=NELSON  NED - JESUS ESTÁ VOLTANDO
DYEAR=1900
DGENRE=Gospel
TTITLE0=LEVANTE A CABEÇA
TTITLE1=COMEÇA COMIGO
TTITLE2=JESUS ESTÁ VOLTANDO
TTITLE3=O NOME DE JESUS
TTITLE4=O MELHOR LUGAR DO MUNDO
TTITLE5=ESPÍRITO DE INTIMIDADE
TTITLE6=RENOVA-ME
TTITLE7=TOCOU-ME
TTITLE8=POVO DE GUERRA
TTITLE9=GRANDE É O SENHOR
TTITLE10=OFERTA DE AMOR
TTITLE11=OLHE PÁRA O CÉU
TTITLE12=QUEM NOS SEPARARÁ
EXTD=
EXTT0=
EXTT1=
EXTT2=
EXTT3=
EXTT4=
EXTT5=
EXTT6=
EXTT7=
EXTT8=
EXTT9=
EXTT10=
EXTT11=
EXTT12=
PLAYORDER=
